<svg xmlns="http://www.w3.org/2000/svg" viewBox="0 0 400 330"><g transform="translate(100,0) scale(1)"><path d="M90.62 25.04C91.11 25.04 93.07 24.87 93.56 25.04C94.04 25.21 94.71 25.22 93.54 26.07C92.36 26.91 89.09 28.34 86.50 30.12C83.90 31.90 80.69 34.27 77.97 36.75C75.24 39.23 71.97 42.88 70.16 45.01C68.34 47.15 67.63 48.59 67.06 49.56C66.50 50.53 66.57 50.61 66.76 50.82C66.95 51.03 66.65 51.30 68.21 50.83C69.77 50.37 72.99 48.96 76.11 48.04C79.23 47.12 84.24 45.86 86.91 45.32C89.57 44.77 90.66 45.03 92.09 44.77C93.52 44.52 92.81 44.19 95.51 43.78C98.20 43.37 104.20 42.65 108.27 42.33C112.35 42.01 114.44 41.89 119.95 41.88C125.47 41.86 137.72 42.25 141.36 42.23C145.01 42.21 141.80 41.98 141.83 41.75C141.86 41.52 142.48 42.07 141.54 40.87C140.59 39.67 138.64 36.79 136.16 34.58C133.68 32.37 128.26 28.86 126.65 27.61C125.05 26.35 126.48 27.21 126.53 27.04C126.59 26.87 126.56 26.67 126.99 26.58C127.42 26.49 127.90 26.26 129.12 26.49C130.34 26.71 132.30 27.21 134.30 27.94C136.30 28.67 138.82 29.64 141.11 30.85C143.41 32.06 146.01 33.74 148.09 35.19C150.16 36.65 151.84 38.06 153.54 39.56C155.24 41.06 156.79 42.55 158.27 44.20C159.75 45.84 159.81 47.08 162.44 49.45C165.06 51.81 171.07 55.93 174.00 58.39C176.93 60.85 178.03 62.01 180.00 64.20C181.97 66.40 184.49 69.60 185.81 71.56C187.13 73.52 187.67 75.12 187.91 75.95C188.15 76.78 187.50 76.45 187.26 76.55C187.02 76.64 187.63 77.27 186.47 76.55C185.31 75.83 182.10 73.29 180.32 72.22C178.53 71.15 176.83 70.54 175.77 70.13C174.70 69.72 174.32 69.78 173.93 69.76C173.55 69.74 173.54 69.78 173.44 70.02C173.34 70.26 172.95 69.70 173.34 71.20C173.73 72.70 175.30 76.76 175.78 79.03C176.26 81.30 176.02 83.23 176.23 84.85C176.44 86.46 176.89 87.09 177.05 88.72C177.20 90.35 177.36 91.42 177.14 94.62C176.91 97.83 176.40 104.05 175.69 107.93C174.98 111.81 173.84 115.01 172.88 117.91C171.91 120.82 170.87 123.24 169.89 125.34C168.90 127.44 167.67 129.50 166.98 130.52C166.29 131.55 166.03 131.10 165.75 131.49C165.46 131.89 165.54 132.54 165.24 132.90C164.94 133.26 164.22 133.33 163.95 133.65C163.68 133.96 163.81 134.52 163.61 134.80C163.41 135.07 163.23 134.57 162.76 135.30C162.29 136.02 162.31 137.28 160.81 139.15C159.30 141.01 156.14 144.31 153.72 146.50C151.30 148.70 148.32 150.85 146.27 152.31C144.23 153.78 143.25 154.30 141.48 155.30C139.71 156.30 137.81 157.35 135.66 158.30C133.51 159.25 130.67 160.29 128.60 161.01C126.53 161.74 125.02 162.29 123.23 162.65C121.45 163.01 119.35 162.94 117.87 163.19C116.39 163.45 116.61 163.96 114.36 164.19C112.11 164.42 107.28 164.61 104.38 164.55C101.48 164.49 99.83 162.95 96.96 163.83C94.09 164.70 89.79 168.28 87.16 169.79C84.52 171.29 82.96 172.03 81.16 172.88C79.35 173.72 78.07 174.54 76.34 174.87C74.61 175.20 71.88 175.05 70.77 174.87C69.67 174.69 70.08 174.39 69.69 173.80C69.29 173.21 68.71 172.64 68.41 171.33C68.10 170.02 67.84 167.54 67.86 165.94C67.88 164.35 68.18 163.07 68.50 161.76C68.82 160.44 69.41 158.89 69.77 158.04C70.13 157.20 70.47 157.18 70.66 156.66C70.86 156.15 72.73 156.63 70.93 154.97C69.13 153.30 62.69 149.06 59.86 146.68C57.03 144.30 55.87 142.88 53.95 140.68C52.03 138.49 49.98 135.93 48.32 133.51C46.66 131.09 45.20 128.52 43.98 126.18C42.75 123.83 41.98 122.12 40.98 119.45C39.98 116.79 38.72 113.20 37.98 110.20C37.24 107.19 36.82 104.58 36.53 101.41C36.25 98.25 36.43 93.04 36.25 91.21C36.06 89.37 37.35 90.55 35.41 90.40C33.48 90.25 27.36 90.59 24.62 90.31C21.88 90.04 20.59 89.44 18.98 88.77C17.37 88.10 16.12 87.21 14.95 86.30C13.79 85.39 12.49 84.38 12.00 83.31C11.51 82.23 11.75 80.75 12.00 79.84C12.25 78.94 12.61 78.81 13.48 77.88C14.35 76.94 15.96 75.31 17.22 74.23C18.48 73.15 18.74 72.84 21.04 71.41C23.34 69.97 26.92 67.70 31.00 65.61C35.08 63.52 42.65 60.75 45.53 58.86C48.42 56.97 47.14 55.97 48.32 54.27C49.50 52.56 50.91 50.60 52.59 48.63C54.28 46.66 56.58 44.21 58.41 42.45C60.24 40.70 62.10 39.29 63.59 38.09C65.09 36.90 65.43 36.52 67.40 35.28C69.36 34.05 72.30 32.14 75.39 30.66C78.47 29.18 83.48 27.20 85.89 26.40C88.30 25.60 89.06 26.07 89.85 25.85C90.63 25.62 90.47 25.18 90.60 25.04C90.73 24.91 90.13 25.04 90.62 25.04ZM107.30 54.70C104.76 54.72 96.17 54.62 92.07 54.82C87.96 55.02 85.70 55.49 82.65 55.91C79.60 56.33 76.91 56.68 73.78 57.36C70.65 58.04 66.10 59.31 63.89 59.99C61.68 60.67 61.20 61.06 60.52 61.45C59.84 61.84 59.93 61.72 59.81 62.35C59.69 62.97 60.17 63.49 59.80 65.20C59.44 66.91 58.16 69.66 57.63 72.60C57.10 75.54 56.80 80.44 56.63 82.83C56.47 85.22 56.45 84.45 56.63 86.93C56.81 89.41 57.15 94.50 57.72 97.70C58.29 100.91 58.87 102.95 60.08 106.15C61.29 109.34 63.47 114.01 64.98 116.85C66.49 119.69 67.56 121.07 69.14 123.19C70.73 125.30 72.46 127.44 74.50 129.55C76.55 131.65 78.64 133.73 81.41 135.82C84.18 137.91 88.66 140.64 91.12 142.08C93.57 143.52 94.17 143.66 96.12 144.45C98.07 145.24 101.60 146.13 102.82 146.82C104.04 147.52 102.95 148.53 103.45 148.61C103.95 148.70 104.32 148.48 105.81 147.33C107.29 146.18 110.26 143.66 112.35 141.70C114.44 139.75 116.14 138.05 118.34 135.61C120.55 133.18 123.68 129.52 125.59 127.10C127.49 124.69 128.32 123.30 129.77 121.11C131.22 118.91 132.78 116.61 134.30 113.95C135.81 111.29 137.10 109.05 138.83 105.15C140.57 101.25 143.30 94.62 144.72 90.57C146.14 86.53 146.64 83.87 147.35 80.86C148.06 77.86 148.69 75.74 148.98 72.53C149.27 69.33 149.15 63.73 149.07 61.65C148.99 59.56 148.83 60.43 148.47 60.02C148.11 59.61 147.89 59.45 146.89 59.17C145.89 58.90 143.65 58.65 142.47 58.35C141.29 58.05 141.92 57.76 139.80 57.36C137.68 56.95 133.10 56.30 129.75 55.91C126.40 55.52 123.44 55.20 119.70 55.00C115.96 54.81 109.39 54.77 107.32 54.72C105.25 54.66 109.84 54.68 107.30 54.70ZM39.76 70.45C39.52 70.48 39.08 70.38 38.36 70.67C37.64 70.97 37.73 70.83 35.44 72.22C33.14 73.61 26.97 77.31 24.57 79.01C22.18 80.71 21.72 81.71 21.07 82.42C20.42 83.14 20.72 83.02 20.69 83.28C20.66 83.55 20.65 83.70 20.91 84.01C21.16 84.32 21.09 84.68 22.24 85.15C23.39 85.61 25.61 86.49 27.79 86.78C29.97 87.07 33.91 86.92 35.32 86.87C36.74 86.82 35.97 87.00 36.27 86.49C36.58 85.99 36.88 85.32 37.17 83.85C37.45 82.38 37.52 79.78 37.98 77.67C38.45 75.56 39.68 72.38 39.98 71.18C40.28 69.98 39.82 70.59 39.78 70.47C39.75 70.35 40.00 70.42 39.76 70.45ZM164.52 84.03C164.33 84.14 163.98 83.75 163.39 84.69C162.81 85.63 162.87 86.29 161.00 89.69C159.14 93.09 155.57 99.72 152.22 105.08C148.87 110.44 144.36 117.19 140.89 121.85C137.41 126.52 135.46 128.78 131.38 133.08C127.30 137.38 119.00 145.07 116.42 147.68C113.84 150.29 115.55 148.48 115.88 148.74C116.21 149.00 115.87 149.24 118.41 149.25C120.95 149.26 127.33 149.28 131.11 148.80C134.89 148.31 138.64 147.04 141.09 146.35C143.54 145.65 143.56 145.64 145.80 144.63C148.04 143.62 151.75 141.86 154.51 140.27C157.28 138.68 160.95 136.19 162.39 135.11C163.83 134.03 162.90 134.07 163.16 133.80C163.42 133.54 163.82 133.97 163.97 133.53C164.13 133.09 163.74 132.29 164.10 131.16C164.47 130.02 165.53 128.42 166.18 126.70C166.82 124.97 167.46 123.57 167.99 120.79C168.52 118.01 169.14 112.78 169.35 110.02C169.56 107.25 169.50 106.89 169.26 104.20C169.02 101.51 168.57 97.05 167.90 93.88C167.24 90.71 165.83 86.80 165.27 85.16C164.71 83.53 164.67 84.24 164.54 84.05C164.41 83.87 164.71 83.93 164.52 84.03ZM75.61 157.18C75.42 157.26 74.90 157.09 74.49 157.66C74.07 158.23 73.41 159.44 73.12 160.58C72.83 161.72 72.71 163.62 72.75 164.52C72.79 165.42 73.08 165.69 73.35 165.97C73.61 166.24 73.62 166.30 74.34 166.18C75.07 166.07 76.44 165.76 77.72 165.27C78.99 164.78 80.88 163.90 81.99 163.27C83.11 162.63 84.15 161.93 84.42 161.46C84.69 161.00 85.07 161.19 83.60 160.48C82.14 159.77 76.97 157.75 75.63 157.20C74.30 156.65 75.80 157.11 75.61 157.18Z" fill="#2c1d3d" fill-rule="evenodd"></path></g><text x="207" y="262" text-anchor="middle" font-family="Space Grotesk" font-weight="500" font-size="30" letter-spacing="10" fill="#2c1d3d">OMNIORBITS</text><text x="205" y="302" text-anchor="middle" font-family="Space Grotesk" font-weight="500" font-size="15" letter-spacing="7" fill="#8a7c92">SINCE 2023</text></svg>